<?xml version="1.0" standalone="no"?>
<!DOCTYPE svg PUBLIC "-//W3C//DTD SVG 20010904//EN"
 "http://www.w3.org/TR/2001/REC-SVG-20010904/DTD/svg10.dtd">
<svg version="1.0" xmlns="http://www.w3.org/2000/svg"
 width="16.000000pt" height="16.000000pt" viewBox="0 0 16.000000 16.000000"
 preserveAspectRatio="xMidYMid meet">
<metadata>
Created by potrace 1.11, written by Peter Selinger 2001-2013
</metadata>
<g transform="translate(0.000000,16.000000) scale(0.003501,-0.003501)"
fill="#000000" stroke="none">
<path d="M0 2285 l0 -2285 2285 0 2285 0 0 2285 0 2285 -2285 0 -2285 0 0
-2285z m4444 1765 c55 -21 57 -36 54 -444 l-3 -374 -24 -26 -24 -26 -818 0
c-450 0 -825 3 -834 6 -42 17 -45 44 -45 439 l0 377 29 29 29 29 806 0 c488 0
815 -4 830 -10z m-374 -1329 c0 -192 -3 -357 -6 -366 -17 -42 -44 -45 -439
-45 l-377 0 -29 29 -29 29 0 351 0 351 440 0 440 0 0 -349z m-872 -823 c2 -94
-9 -269 -33 -552 -19 -228 -35 -422 -35 -430 0 -13 -15 -16 -94 -16 l-95 0 -6
53 c-25 223 -65 789 -65 924 l0 163 163 -2 162 -3 3 -137z m943 122 c232 -44
379 -248 341 -476 -17 -105 -44 -147 -190 -296 -149 -153 -162 -176 -162 -300
l0 -68 -130 0 -130 0 0 118 c1 157 7 171 174 341 73 75 138 145 144 156 18 37
23 101 11 150 -37 146 -235 192 -340 78 -33 -34 -59 -85 -59 -113 0 -19 -5
-20 -146 -20 l-146 0 7 33 c25 124 90 241 168 300 49 37 153 85 208 96 63 12
187 13 250 1z m-1035 -1329 c134 -61 136 -242 4 -312 -142 -76 -304 85 -231
229 23 45 46 66 91 86 47 20 87 19 136 -3z m1002 -13 c52 -35 75 -86 70 -153
-8 -92 -78 -155 -173 -155 -62 0 -105 20 -143 66 -71 86 -43 202 63 259 45 24
133 16 183 -17z"/>
</g>
</svg>
